<svg width="15" height="15" viewBox="0 0 15 15" fill="none" xmlns="http://www.w3.org/2000/svg">
<path d="M0.592908 7.1843C0.520888 7.16309 0.447657 7.21563 0.447657 7.29071C0.447657 7.85647 0.63905 8.79228 0.732903 9.21717C0.76251 9.3512 0.872926 9.45029 1.00937 9.46524C1.59141 9.52899 3.15671 9.68 4.00866 9.56512C5.82573 9.32014 7.53208 8.55071 9.14735 7.40985C10.3798 6.53942 11.7727 6.29791 13.0105 6.39064C13.44 6.42279 13.8346 6.49371 14.183 6.58532C14.2963 6.61508 14.4072 6.52475 14.3926 6.4086C14.3076 5.73282 14.1263 5.08701 13.8629 4.48538C13.8185 4.38406 13.724 4.31393 13.6142 4.30007C13.4678 4.28158 13.3198 4.26663 13.1705 4.25545C11.5476 4.13389 9.63295 4.44549 7.9121 5.66092C6.50406 6.65541 5.11763 7.25506 3.72255 7.44315C2.72456 7.57771 1.68714 7.50655 0.592908 7.1843Z" fill="white"/>
<path d="M0.751916 5.24301C0.726652 5.32572 0.771738 5.41318 0.853698 5.44078C1.04315 5.50457 1.23533 5.56095 1.43038 5.6083C3.23389 6.0461 5.2653 5.90798 7.37073 4.01265C8.84024 2.89837 10.4491 2.59291 12.469 2.61378C12.541 2.61452 12.5796 2.52954 12.5301 2.47726C11.7924 1.69865 10.8778 1.08945 9.85055 0.714027C9.7981 0.694858 9.74248 0.685258 9.68665 0.686426C8.22053 0.717092 6.90129 1.54062 5.79511 2.41586C4.12481 3.73742 2.97315 3.77945 1.93548 3.52756C1.8655 3.51057 1.79517 3.49163 1.72437 3.47079C1.65352 3.44994 1.57667 3.47648 1.53703 3.5388C1.20324 4.06354 0.9374 4.63575 0.751916 5.24301Z" fill="white"/>
<path d="M4.35536 13.4265C4.31757 13.4217 4.28029 13.41 4.2466 13.3922C3.32657 12.9066 2.45949 12.2914 1.83429 11.4719C1.79141 11.4157 1.83724 11.3369 1.90766 11.3432C4.63343 11.5845 6.97041 10.9372 8.80359 9.71057C10.067 8.86517 10.8509 8.3999 11.8589 8.26061C12.5877 8.15991 13.5886 8.30548 14.2046 8.50633C14.2804 8.53103 14.3243 8.60875 14.3075 8.68665C14.1738 9.30596 13.9041 9.89563 13.6177 10.4439C13.5787 10.5187 13.4886 10.552 13.4063 10.5337C13.0157 10.4468 12.2062 10.411 11.8226 10.464C11.2394 10.5446 10.2677 11.0032 9.17082 11.7372C7.50281 12.8533 6.43781 13.6908 4.35536 13.4265Z" fill="white"/>
</svg>
